<svg version="1.2" xmlns="http://www.w3.org/2000/svg" viewBox="0 0 1436 295" width="1436" height="295">
	<title>New Project</title>
	<path id="network51" class="s0" aria-label="network51"  d="m0.3 289v-196h34.9l5.9 14.5q11-5.5 24-10 11.3-3.7 25.9-6.9 14.7-3.1 31.3-3.1 31.3 0 46.1 15.2 15.1 15 15.1 47.4v138.9h-47.6v-133.6q0-7.6-1.2-13-1-5.5-4.6-8.9-3.6-3.5-10.4-5.2-6.8-1.6-18.3-1.6-12 0-21.8 1.4-9.9 1.3-16.9 2.8-8.2 1.9-14.8 4.1v154zm177.4-100.1q0-30.7 8.7-50.4 8.6-19.6 22.8-31 14.3-11.3 32.5-15.6 18.3-4.4 37.6-4.4 24.2 0 40.1 6.1 16 6.1 25.5 17.3 9.4 10.9 13.2 26.3 3.8 15.5 3.8 34 0 8.8-0.8 18.1-0.6 9.2-1.8 19.1h-132.6q0.2 13.2 3 22.3 3 8.9 9.6 14.6 6.9 5.6 17.9 8.2 11.2 2.4 27.9 2.4 14 0 26.3-0.5 12.2-0.8 21.4-1.7 10.8-0.9 19.7-2.4v30.8q-10.3 3.6-22.3 6.3-10.2 2.5-23.9 4.5-13.6 1.9-29.1 1.9-23.6 0-42.1-5.4-18.4-5.6-31.3-18-12.6-12.7-19.4-32.9-6.7-20.3-6.7-49.6zm48.6-13.6h91.7v-7q0-11.2-1.6-19.4-1.4-8.3-6.1-13.7-4.6-5.4-13-8-8.4-2.6-22.5-2.6-15 0-24.6 3.4-9.5 3.1-14.9 9.6-5.2 6.3-7.2 15.8-1.8 9.5-1.8 21.9zm141 73.8v-119.5h-31.3v-36.6h31.3v-41.4l47.5-9.8v51.2h53.4v36.6h-53.4v105.3q0 6.9 1 11.4 1.2 4.4 4 7.2 3 2.6 8.2 3.7 5.5 1 13.9 1 7.8 0 14-0.2 6.4-0.4 10.9-0.8 5.2-0.3 9.2-0.9v29.4q-7 2.6-15.1 4.6-7 1.7-16.4 3.2-9.4 1.3-20.7 1.3-15.6 0-26.5-2.8-10.6-2.8-17.4-8.4-6.6-5.7-9.6-14.3-3-8.7-3-20.2zm125.3 39.9l-55.2-196h47.7l39.4 156.8h3.4l33.3-156.8h65.2l33.3 156.8h2.8l40.3-156.8h41.5l-53.3 196h-62.6l-35.3-154h-3.2l-31.7 154zm215.5-98.1q0-24.9 5.9-44 5.8-19.3 18-32.5 12.5-13.2 31.3-20.1 18.9-6.8 45.2-6.8 26.2 0 45.1 6.8 19 6.9 31.3 20.1 12.2 13.2 18 32.5 5.9 19.1 5.9 44 0 24.9-5.9 44.4-5.8 19.3-18 32.5-12.3 13.2-31.3 20.1-18.9 6.9-45.1 6.9-26.3 0-45.2-6.9-18.8-6.9-31.3-20.1-12.2-13.2-18-32.5-5.9-19.5-5.9-44.4zm100.4 66.5q15.8 0 25.6-4.2 9.9-4.5 15.3-12.9 5.4-8.5 7.2-20.8 2-12.4 2-28.6 0-15.9-2-28.2-1.8-12.5-7.2-20.8-5.4-8.6-15.3-12.8-9.8-4.5-25.6-4.5-15.7 0-25.5 4.5-9.9 4.2-15.5 12.8-5.4 8.3-7.4 20.8-1.8 12.3-1.8 28.2 0 16.2 1.8 28.6 2 12.3 7.4 20.8 5.6 8.4 15.5 12.9 9.8 4.2 25.5 4.2zm95 31.6v-196h41.1l2.8 21.4q15.7-9.5 35.1-15.6 19.5-6.1 43.7-7.3l-0.4 45.7q-25 0.4-43.5 2.5-18.2 1.8-31.3 6.6v142.7zm106.3 0v-288.7h47.5v164.2h31.3l55.2-71.5h54.3l-72.2 91.4 72.6 104.6h-54.3l-61.2-87.9h-25.7v87.9zm168.5-6.5v-32.7q9.4 1.3 19.4 2.1 8.6 0.7 19.1 1.3 10.4 0.5 20.6 0.5 16.9 0 28.5-2.6 11.9-2.8 19.3-8.4 7.4-5.7 10.8-14.4 3.4-9 3.4-21.4 0-12.3-2-20.6-2-8.4-7.2-13.6-5-5.2-13.8-7.4-8.9-2.2-22.5-2.2-13.1 0-25.1 0.9-12 0.9-21.5 1.8-11 1.2-20.4 2.6v-145h152.4v42h-104.9v59.6q4.8-0.6 10.3-1.1 4.6-0.4 10.6-0.8 6-0.3 12.4-0.3 20.5 0 35.5 3.9 15.3 3.7 25.3 13.5 10.2 9.9 15.3 26.9 5 17 5 43.1 0 25.3-7.4 41.7-7.3 16.3-20.1 26-12.6 9.4-30.3 13.1-17.5 3.8-37.9 3.8-16.7 0-30.3-1.9-13.6-1.9-23.7-4.3-11.6-2.6-20.8-6.1zm209.7 6.5v-223.6h-52.5l13.4-41.5h87.1v265.1z"/>
</svg>